# xmcd
#
# Track frame offsets:
#	150
#	17120
#	33859
#	49783
#	103628
#	120272
#	135489
#	162284
#	182680
#	195736
#
# Disc length: 2813 seconds
#
# Revision: 1
# Processed by: cddbd v1.5.2PL0 Copyright (c) Steve Scherf et al.
# Submitted via: audiograbber 1.82.01
#
DISCID=780afb0a
DTITLE=Hobo Blues Band - Vándor az Úton -Morrison Emlékmûsor
DYEAR=1987
DGENRE=Blues
TTITLE0=Éberdés (Awake)
TTITLE1=A másik oldalra töjünk át (Break On Through)
TTITLE2=Szeress kétszer (Love Me Two Times)
TTITLE3=A zenének vége (When The Music Is Over)
TTITLE4=Maggie M'Gill
TTITLE5=Alabama Song
TTITLE6=A spion (The Spy)
TTITLE7=Óda Los Angeles városához (Ode To L.A.)
TTITLE8=Vad Srác (Wild Child)
TTITLE9=Vad szerelmem (My Wild Love)
EXTD=
EXTT0=
EXTT1=
EXTT2=
EXTT3=
EXTT4=
EXTT5=
EXTT6=
EXTT7=
EXTT8=
EXTT9=
PLAYORDER=
